<svg width="50" height="50" viewBox="0 0 50 50" fill="none" xmlns="http://www.w3.org/2000/svg">
<g clip-path="url(#clip0_126_2845)">
<path d="M9.73293 28.344C9.9717 28.344 10.1683 28.344 10.3509 28.344C12.3453 28.344 14.3397 28.344 16.3341 28.344C18.7919 28.344 20.4352 29.97 20.4492 32.409C20.4633 36.9086 20.4492 41.4082 20.4492 45.9077C20.4492 47.9403 19.2133 49.5242 17.3874 49.9027C15.5475 50.2812 13.6936 49.37 13.0054 47.6459C12.7666 47.0572 12.6824 46.3843 12.6683 45.7535C12.6402 42.7819 12.6543 39.7962 12.6543 36.8245C12.6543 36.6142 12.6543 36.4039 12.6543 36.1516C12.4296 36.1516 12.247 36.1236 12.0644 36.1236C10.0841 36.1236 8.10372 36.1236 6.12338 36.1236C3.58125 36.1236 1.93799 34.4976 1.93799 31.9604C1.93799 27.4749 1.93799 22.9893 1.93799 18.5038C1.93799 16.303 3.24417 14.7471 5.32282 14.4387C7.34529 14.1303 9.36776 15.6302 9.64866 17.6627C9.6908 18.0131 9.71889 18.3636 9.71889 18.714C9.71889 21.6857 9.71889 24.6714 9.71889 27.6431C9.71889 27.8533 9.71889 28.0496 9.71889 28.3299L9.73293 28.344ZM3.41271 25.2741C3.41271 27.4609 3.41271 29.6476 3.41271 31.8483C3.41271 33.7266 4.35372 34.6658 6.20765 34.6658C8.53911 34.6658 10.8706 34.6658 13.202 34.6658C13.8902 34.6658 14.115 34.8901 14.129 35.5769C14.129 35.7171 14.129 35.8573 14.129 35.9974C14.129 39.2775 14.129 42.5436 14.129 45.8236C14.129 46.5105 14.2414 47.1413 14.7189 47.6739C15.393 48.4449 16.4324 48.7252 17.3874 48.3748C18.4127 47.9963 18.9885 47.1272 18.9885 45.9077C18.9885 41.4362 18.9885 36.9787 18.9885 32.5071C18.9885 30.783 18.0194 29.8158 16.2779 29.8158C13.9885 29.8158 11.6852 29.8158 9.39585 29.8158C8.48293 29.8158 8.27226 29.6195 8.27226 28.7224C8.27226 27.6711 8.27226 26.6198 8.27226 25.5685C8.27226 23.1996 8.27226 20.8447 8.27226 18.4757C8.27226 17.2001 7.54192 16.2329 6.43237 15.9806C4.85934 15.6022 3.45484 16.7095 3.4408 18.3916C3.41271 20.6905 3.4408 22.9753 3.4408 25.2741H3.41271Z" fill="#003B90"/>
<path d="M37.3457 36.1333C37.3457 36.3856 37.3457 36.5959 37.3457 36.8062C37.3457 39.8479 37.3457 42.9037 37.3457 45.9455C37.3457 48.1182 36.0255 49.6461 33.9609 49.9685C31.9525 50.2769 29.944 48.805 29.6351 46.8006C29.5929 46.5482 29.5648 46.2819 29.5648 46.0156C29.5648 41.4599 29.5508 36.9043 29.5648 32.3486C29.5648 30.3722 30.7867 28.8443 32.6547 28.4378C32.9918 28.3677 33.357 28.3537 33.694 28.3537C35.6744 28.3537 37.6547 28.3537 39.6351 28.3537C39.8176 28.3537 40.0143 28.3537 40.2811 28.3537C40.2811 28.1014 40.2811 27.9051 40.2811 27.6949C40.2811 24.6531 40.2811 21.5973 40.2811 18.5555C40.2811 16.537 41.4749 14.9951 43.3429 14.5606C45.6042 14.0279 47.8794 15.696 48.048 18.0089C48.048 18.1771 48.0761 18.3593 48.0761 18.5275C48.0761 23.0271 48.0761 27.5267 48.0761 32.0403C48.0761 34.0307 46.9665 35.5306 45.1828 35.9791C44.7615 36.0913 44.312 36.1193 43.8907 36.1193C41.9244 36.1333 39.9721 36.1193 38.0058 36.1193H37.3738L37.3457 36.1333ZM46.5873 25.2979C46.5873 23.8681 46.5873 22.4243 46.5873 20.9946C46.5873 20.0133 46.6154 19.0321 46.5592 18.0509C46.4609 16.6632 45.1407 15.696 43.7643 15.9343C42.5143 16.1586 41.7418 17.1117 41.7418 18.4854C41.7418 21.8777 41.7418 25.2839 41.7418 28.6761C41.7418 29.6153 41.5452 29.7975 40.5901 29.7975C38.3148 29.7975 36.0396 29.7975 33.7643 29.7975C31.9665 29.7975 31.0255 30.7507 31.0255 32.5589C31.0255 36.9604 31.0255 41.3478 31.0255 45.7493C31.0255 46.0296 31.0396 46.31 31.0957 46.5903C31.3345 47.8519 32.6126 48.7069 33.8766 48.4686C35.1266 48.2303 35.857 47.2912 35.871 45.8894C35.871 42.4972 35.871 39.091 35.871 35.6988C35.871 34.8437 36.0676 34.6475 36.9244 34.6475C39.2137 34.6475 41.5171 34.6475 43.8064 34.6475C45.6322 34.6475 46.5733 33.6943 46.5873 31.858C46.5873 29.6713 46.5873 27.4846 46.5873 25.2839V25.2979Z" fill="#003B90"/>
<path d="M18.6938 13.1483C17.177 13.1483 15.7444 13.1483 14.3118 13.1483C13.9045 13.1483 13.5253 13.1343 13.3427 12.6997C13.1742 12.2652 13.4129 11.9708 13.6938 11.6765C14.2697 11.0737 14.8596 10.471 15.4073 9.82618C15.5759 9.62994 15.7023 9.30754 15.7163 9.05523C15.7444 6.39193 15.7163 3.72862 15.7304 1.06532C15.7304 0.224278 15.9551 0 16.7837 0C21.2781 0 25.7865 0 30.2809 0C31.0815 0 31.3202 0.238296 31.3202 1.02327C31.3202 1.59798 31.3202 2.17269 31.3202 2.80348C32.3315 2.80348 33.3006 2.80348 34.2556 2.80348C34.7753 2.80348 35.309 2.76142 35.8287 2.81749C36.1236 2.85955 36.4747 3.01374 36.6433 3.23801C36.868 3.5464 36.6714 3.89683 36.4045 4.17718C35.7865 4.82198 35.1686 5.46678 34.5787 6.13961C34.4101 6.32184 34.2978 6.6162 34.2978 6.86852C34.2837 9.53182 34.2978 12.1951 34.2978 14.8584C34.2978 15.7415 34.1011 15.9378 33.2163 15.9378C28.736 15.9378 24.2556 15.9378 19.7613 15.9378C18.9045 15.9378 18.6938 15.7275 18.6938 14.8865C18.6938 14.3258 18.6938 13.7791 18.6938 13.1483ZM29.8174 11.6625V1.49986H17.191C17.191 1.73816 17.191 1.9344 17.191 2.14466C17.191 4.58368 17.191 7.00869 17.191 9.44771C17.191 9.89627 17.0646 10.2607 16.7416 10.5691C16.4045 10.8915 16.1096 11.2419 15.7444 11.6484H29.8174V11.6625ZM31.3202 4.30334V4.93412C31.3202 7.31707 31.3202 9.70003 31.3202 12.083C31.3202 12.9521 31.1236 13.1483 30.2388 13.1483C27.0927 13.1483 23.9326 13.1483 20.7865 13.1483H20.2107V14.4239H32.8231C32.8231 14.1996 32.8231 14.0034 32.8231 13.8211C32.8231 11.3681 32.8231 8.91505 32.8231 6.46201C32.8231 6.02747 32.9495 5.69106 33.2584 5.38267C33.5955 5.06027 33.8905 4.70984 34.2697 4.30334H31.3343H31.3202Z" fill="#003B90"/>
<path d="M24.9999 24.7954C21.4605 24.7954 17.9212 24.7954 14.3819 24.7954C13.469 24.7954 13.2583 24.5851 13.2583 23.688C13.2583 22.6227 13.2583 21.5433 13.2583 20.478C13.2583 19.707 13.4971 19.4688 14.2695 19.4688C21.4184 19.4688 28.5673 19.4688 35.7162 19.4688C36.4886 19.4688 36.7274 19.707 36.7274 20.478C36.7274 21.5854 36.7274 22.6927 36.7274 23.7861C36.7274 24.5571 36.4746 24.7954 35.7162 24.7954C32.1347 24.7954 28.5673 24.7954 24.9858 24.7954H24.9999ZM35.2386 20.9826H14.7611V23.2955H35.2386V20.9826Z" fill="#003B90"/>
<path d="M38.3569 7.8611C38.371 4.67915 40.9974 2.08594 44.1715 2.08594C47.4159 2.08594 50.0142 4.70719 50.0142 7.9452C50.0142 11.1271 47.3457 13.7484 44.1434 13.7204C40.9412 13.7063 38.3569 11.0711 38.371 7.8611H38.3569ZM44.1856 3.55776C41.7839 3.55776 39.8317 5.49216 39.8317 7.88913C39.8317 10.2861 41.7979 12.2626 44.1715 12.2485C46.5592 12.2485 48.5114 10.3001 48.5395 7.90315C48.5676 5.53421 46.5873 3.55776 44.1996 3.54375L44.1856 3.55776Z" fill="#003B90"/>
<path d="M5.87101 2.15648C9.08731 2.18451 11.6856 4.81978 11.6435 8.01574C11.6014 11.2538 8.97495 13.8189 5.71652 13.7769C2.55641 13.7348 -0.027863 11.0996 0.000226849 7.91762C0.0283167 4.70764 2.66877 2.12844 5.87101 2.15648ZM5.80079 3.6283C3.3991 3.6283 1.44686 5.60475 1.47495 7.98771C1.50304 10.3847 3.44124 12.3051 5.85697 12.3051C8.24461 12.3051 10.1969 10.3426 10.1828 7.94565C10.1828 5.54868 8.21652 3.6283 5.81483 3.6283H5.80079Z" fill="#003B90"/>
<path d="M23.5252 5.5812C22.3876 5.5812 21.2499 5.5812 20.1123 5.5812C19.5505 5.5812 19.2134 5.28684 19.2275 4.83828C19.2275 4.40374 19.5646 4.10938 20.0842 4.10938C22.3735 4.10938 24.6769 4.10938 26.9662 4.10938C27.4859 4.10938 27.8089 4.44579 27.8089 4.86631C27.8089 5.28684 27.4719 5.56718 26.9381 5.5812C25.8005 5.5812 24.6629 5.5812 23.5252 5.5812Z" fill="#003B90"/>
<path d="M23.4832 9.02651C22.3596 9.02651 21.25 9.02651 20.1264 9.02651C19.5646 9.02651 19.2275 8.74616 19.2275 8.29761C19.2275 7.84905 19.5646 7.55469 20.1264 7.55469C22.4017 7.55469 24.677 7.55469 26.9382 7.55469C27.486 7.55469 27.823 7.86307 27.809 8.31163C27.795 8.73215 27.4579 9.0125 26.9382 9.02651C25.7865 9.02651 24.6348 9.02651 23.4832 9.02651Z" fill="#003B90"/>
</g>
<defs>
<clipPath id="clip0_126_2845">
<rect width="50" height="50" fill="white"/>
</clipPath>
</defs>
</svg>
