<svg width="50" height="50" viewBox="0 0 50 50" fill="none" xmlns="http://www.w3.org/2000/svg">
<path d="M50 49.4914C49.7261 49.8947 49.3478 50.0023 48.8651 50.0023C32.9507 50.0023 17.0363 50.0023 1.12184 50.0023C0.221758 50.0023 0 49.7737 0 48.846C0 47.1655 0 45.4849 0 43.8044C0 43.0111 0.260892 42.7557 1.03052 42.7423C1.43491 42.7423 1.83929 42.7423 2.32194 42.7423C2.23063 42.5809 2.15236 42.4599 2.11323 42.3255C1.9306 41.6533 1.61753 40.981 1.60449 40.3088C1.55231 37.5661 1.56535 34.8369 1.59144 32.0942C1.64362 27.3349 5.4396 23.436 10.0574 23.3822C10.9966 23.3822 11.9358 23.3822 12.862 23.3822C12.9924 22.9654 12.875 22.7234 12.575 22.4814C11.101 21.2714 10.24 19.6715 9.87477 17.749C8.81816 17.7086 7.89199 17.3456 7.30498 16.4314C7.00496 15.9609 6.70493 15.3693 6.69189 14.8315C6.67884 12.8417 6.60057 10.8116 6.87451 8.84873C7.52674 4.26417 11.4271 0.580381 15.9144 0.069491C21.641 -0.575844 26.7023 3.3365 27.5763 9.18484C27.7981 10.6368 27.6937 12.1292 27.7198 13.6081C27.7198 14.0652 27.7459 14.5223 27.6807 14.966C27.4459 16.5793 26.2849 17.5876 24.5108 17.749C24.4586 17.9506 24.4195 18.1792 24.3543 18.3943C23.9369 20.0345 23.102 21.4059 21.8106 22.468C21.4453 22.7772 21.4453 22.7772 21.4975 23.3688C22.2672 23.3688 23.0498 23.3419 23.8195 23.3688C24.4847 23.3957 25.15 23.4898 25.8022 23.5435C25.9327 23.5435 26.0631 23.5704 26.1936 23.5704C27.0676 23.5032 27.9285 23.3688 28.8025 23.3688C34.203 23.3553 39.6034 23.3688 45.0039 23.3688C47.1171 23.3688 48.3955 24.6998 48.3955 26.8912C48.3955 31.422 48.3955 35.9662 48.3955 40.497C48.3955 41.223 48.252 41.9356 48.1607 42.7154C48.6825 42.8364 49.4913 42.4465 49.9609 43.2263V49.4779L50 49.4914ZM25.7892 42.7423H26.3501C32.5854 42.7423 38.8077 42.7423 45.043 42.7423C46.2953 42.7423 46.8823 42.1373 46.8823 40.8197C46.8823 36.1814 46.8823 31.543 46.8823 26.9181C46.8823 25.614 46.2953 24.9955 45.043 24.9955C39.2512 24.9955 33.4594 24.9955 27.6676 24.9955C26.3632 24.9955 25.7892 25.5871 25.7892 26.9181C25.7892 32.0136 25.7892 37.0956 25.7892 42.191C25.7892 42.3524 25.7892 42.5137 25.7892 42.7423ZM12.8489 24.9955C12.0141 24.9955 11.1662 24.9955 10.3313 24.9955C6.20923 24.9955 3.13071 28.1684 3.13071 32.4035C3.13071 34.9579 3.13071 37.5124 3.13071 40.0668C3.13071 41.7474 4.08296 42.7423 5.7005 42.7423C8.58335 42.7423 11.4662 42.7423 14.336 42.7423C14.4926 42.7423 14.6491 42.7288 14.8056 42.7154V38.7089H14.2447C12.1576 38.7089 10.0835 38.7089 7.99635 38.7089C7.3963 38.7089 7.03105 38.3862 7.03105 37.8888C7.03105 37.4048 7.3963 37.0956 7.97026 37.0956C10.54 37.0956 13.1098 37.0956 15.6796 37.0956C17.0884 37.0956 18.3538 37.5796 19.4756 38.4804C19.593 38.5745 19.7235 38.6955 19.8409 38.6955C21.2888 38.7089 22.7237 38.6955 24.2108 38.6955C24.2108 38.4669 24.2108 38.2787 24.2108 38.1039C24.2108 35.4688 24.1717 32.8337 24.2238 30.1851C24.263 28.4642 23.9238 26.703 24.576 24.9955H21.4714C21.3149 26.1114 20.8844 27.0929 20.0757 27.8458C19.2408 28.6256 18.2625 29.0154 17.1406 29.002C15.0404 29.002 13.7621 27.7786 12.8489 24.9687V24.9955ZM1.5784 48.3486H48.4086V44.3825H1.5784V48.3486ZM8.20506 11.7259C9.13123 11.1612 10.0965 11.2822 11.0488 11.2822C11.1792 11.2822 11.3097 11.2822 11.4401 11.2822C14.8317 11.336 17.7407 10.126 20.1148 7.62529C20.6366 7.08751 21.0801 7.1144 21.5367 7.73284C22.3454 8.8084 23.1411 9.88396 23.9499 10.9595C24.0412 11.0805 24.1717 11.2418 24.3021 11.2687C24.9152 11.3897 25.5283 11.4704 26.1284 11.578C26.3501 8.00173 24.6935 4.62717 21.6801 2.87939C18.5364 1.05094 15.3405 1.10472 12.3011 3.12139C9.3269 5.09772 8.06157 8.04206 8.17897 11.7393L8.20506 11.7259ZM20.7409 9.27896C18.0537 11.7796 14.923 12.9627 11.414 12.909C11.414 14.4954 11.2836 16.0415 11.4401 17.5473C11.7402 20.3841 14.336 22.5755 17.1667 22.5755C20.0235 22.5755 22.6194 20.3841 22.9194 17.5204C23.102 15.8802 23.0107 14.1996 23.0237 12.546C23.0237 12.4115 22.9455 12.2636 22.8672 12.1426C22.1758 11.2015 21.4845 10.2738 20.7409 9.27896ZM14.4795 23.6645C14.336 24.9955 14.5447 26.1652 15.6666 26.9316C16.6449 27.5903 17.6624 27.6038 18.6408 26.9584C19.8017 26.1921 20.0235 25.0224 19.88 23.6645C18.0798 24.3502 16.2927 24.3637 14.4795 23.6645ZM20.1931 42.7423C20.0887 40.9138 18.1842 38.9509 16.4232 38.8299V42.7019C16.5014 42.7019 16.5667 42.7288 16.6319 42.7288C17.8059 42.7288 18.9669 42.7288 20.1931 42.7288V42.7423ZM24.1978 40.3491H21.1323C21.3932 41.1424 21.641 41.9087 21.8889 42.7154H24.1847V40.3491H24.1978ZM24.6282 16.0819C25.5022 16.0819 26.1414 15.3962 26.1675 14.5357C26.1936 13.7291 25.4631 12.8417 24.6282 12.9224V16.0819ZM9.74432 12.909C8.75293 12.909 8.19202 13.8232 8.20506 14.5089C8.21811 15.3693 8.84425 16.0281 9.74432 16.0819V12.8955V12.909Z" fill="#003B90"/>
</svg>
