<svg width="50" height="50" viewBox="0 0 50 50" fill="none" xmlns="http://www.w3.org/2000/svg">
<g clip-path="url(#clip0_126_2868)">
<path d="M50 2.86907V36.813C49.9739 36.84 49.9478 36.8534 49.9348 36.8804C49.3086 38.8605 48.2651 39.6417 46.2562 39.6417C41.0514 39.6417 35.8466 39.6417 30.6418 39.6417C30.4592 39.6417 30.2635 39.6417 29.9504 39.6417C30.1461 40.5442 30.2505 41.3658 30.4983 42.1336C31.0853 43.9251 32.2854 44.7737 34.0986 44.8006C34.6726 44.8006 35.2335 44.8006 35.8075 44.8141C36.5771 44.8276 37.2424 45.1105 37.7381 45.7301C38.3773 46.5248 38.5207 47.4273 38.1424 48.3836C37.7511 49.3669 36.9945 49.9461 35.951 49.9731C34.4247 50.0135 32.8985 49.9865 31.3593 49.9865C25.7109 49.9865 20.0626 49.9596 14.4273 49.9865C12.6924 49.9865 11.6619 48.7069 11.6749 47.3734C11.688 45.8648 12.8098 44.8141 14.4143 44.8006C15.0143 44.8006 15.6144 44.8006 16.2145 44.7737C17.3493 44.7198 18.3016 44.2484 18.9538 43.2651C19.6713 42.1875 19.893 40.9617 19.9452 39.6282C19.7235 39.6282 19.5278 39.6282 19.3452 39.6282C14.1012 39.6282 8.87034 39.6282 3.6264 39.6282C1.38273 39.6282 0 38.2004 0 35.8971C0 30.5765 0 25.2559 0 19.9353C0 14.4801 0 9.02478 0 3.5695C0 2.06088 0.652231 0.915948 2.00887 0.309806C2.49152 0.080819 3.07853 0 3.6264 0C17.8711 0 32.1289 0 46.3866 0C46.5693 0 46.7389 0 46.9215 0.0134698C48.2651 0.121228 49.3869 1.02371 49.8174 2.35722C49.8696 2.53233 49.9348 2.69397 50 2.86907ZM5.02218 30.9537H44.9648V5.21282H5.02218V30.9537ZM48.3303 32.799H1.66971C1.66971 33.3917 1.66971 33.944 1.66971 34.4962C1.66971 34.9811 1.66971 35.4661 1.66971 35.9644C1.66971 37.2441 2.32194 37.9176 3.57422 37.9176C17.8581 37.9176 32.1419 37.9176 46.4258 37.9176C46.5171 37.9176 46.6214 37.9176 46.7128 37.9176C47.5998 37.8772 48.2912 37.1902 48.3172 36.2742C48.3433 35.1293 48.3172 33.9844 48.3172 32.799H48.3303ZM1.66971 30.9671H3.33942C3.33942 30.7247 3.33942 30.5226 3.33942 30.3206C3.33942 21.7807 3.33942 13.2543 3.33942 4.71444C3.33942 3.67726 3.56118 3.44828 4.57866 3.44828C18.1972 3.44828 31.8158 3.44828 45.4474 3.44828C46.4649 3.44828 46.6867 3.67726 46.6867 4.71444C46.6867 13.2543 46.6867 21.7807 46.6867 30.3206V30.9671H48.3564V30.3745C48.3564 21.5248 48.3564 12.6616 48.3564 3.81196C48.3564 2.35722 47.7563 1.73761 46.3345 1.73761C32.1289 1.73761 17.9233 1.73761 3.71771 1.73761C2.29585 1.73761 1.6958 2.35722 1.6958 3.81196C1.6958 12.6616 1.6958 21.5248 1.6958 30.3745V30.9671H1.66971ZM19.9583 44.7602H29.8852C29.533 43.9655 29.0895 43.1843 28.8286 42.3491C28.5547 41.5005 28.4503 40.5846 28.2677 39.6686H21.641C21.4845 41.5005 21.1453 43.2381 19.9452 44.7468L19.9583 44.7602ZM24.9543 48.2624C28.4242 48.2624 31.881 48.2624 35.3509 48.2624C35.4944 48.2624 35.6379 48.2624 35.7944 48.2624C36.3292 48.2355 36.6423 47.9256 36.6554 47.4407C36.6554 46.9423 36.3423 46.5652 35.7944 46.5517C35.09 46.5383 34.3986 46.5787 33.6942 46.5787C27.9024 46.5787 22.1106 46.5787 16.3188 46.5787C15.6405 46.5787 14.9491 46.5383 14.2708 46.5517C13.6838 46.5517 13.3446 46.9154 13.3577 47.4407C13.3577 47.9391 13.6968 48.2489 14.2708 48.2759C14.4143 48.2759 14.5578 48.2759 14.7143 48.2759C18.132 48.2759 21.5497 48.2759 24.9674 48.2759L24.9543 48.2624Z" fill="#003B91"/>
<path d="M39.1601 23.9618C38.847 24.4602 38.5731 24.8913 38.2861 25.3088C37.9339 25.8341 37.4643 25.9823 37.0469 25.6994C36.6164 25.4031 36.5642 24.8913 36.9164 24.3255C36.9164 24.3121 36.9295 24.2986 36.9425 24.2851C38.1687 22.9112 38.5339 21.2948 38.3513 19.4494C38.26 18.5066 38.3383 17.5367 38.3383 16.5669C38.3383 16.4053 38.3252 16.2436 38.3122 16.0146C37.5034 16.4053 36.7468 16.7555 36.0163 17.1326C35.912 17.1865 35.8467 17.4424 35.8467 17.5906C35.8467 19.3552 35.8207 21.1197 35.8467 22.8977C35.8467 23.5173 35.6511 23.8945 35.1032 24.1639C31.9595 25.7668 28.8157 27.3966 25.685 29.04C25.2023 29.2959 24.798 29.2824 24.3153 29.04C21.1846 27.3966 18.0409 25.7803 14.8971 24.1774C14.3753 23.908 14.1536 23.5577 14.1536 22.9516C14.1796 21.1736 14.1536 19.3821 14.1666 17.6041C14.1666 17.3077 14.0883 17.1596 13.8274 17.0383C12.7578 16.54 11.7142 16.0012 10.6446 15.5028C10.2663 15.3277 10.0054 15.0852 10.0054 14.6407C10.0054 14.1962 10.2793 13.9538 10.6446 13.7786C15.2363 11.5561 19.8149 9.32013 24.4066 7.07067C24.8501 6.85516 25.2284 6.8821 25.6589 7.09761C30.1071 9.27972 34.5684 11.4349 39.0166 13.6035C39.1601 13.6709 39.3166 13.7248 39.4601 13.8056C39.8384 14.0076 40.0341 14.3174 40.0341 14.7754C40.021 17.0922 40.008 19.4225 40.021 21.7393C40.021 21.9952 40.1123 22.2646 40.2428 22.4802C40.6211 23.1267 41.0515 23.7463 41.4559 24.3794C41.782 24.9047 41.7168 25.43 41.2864 25.6994C40.882 25.9688 40.3993 25.8341 40.0732 25.3358C39.7862 24.9047 39.4992 24.4468 39.1731 23.9484L39.1601 23.9618ZM35.2337 15.5971L35.1945 15.5297H25.8154C25.8154 15.8395 25.8415 16.1224 25.8154 16.4053C25.7763 16.9171 25.4502 17.2269 24.9936 17.2269C24.5371 17.2269 24.1849 16.9171 24.1718 16.4053C24.1457 15.2469 24.1457 14.0885 24.1718 12.93C24.1718 12.4182 24.524 12.0949 24.9675 12.0814C25.4241 12.068 25.7763 12.4047 25.8154 12.93C25.8415 13.2129 25.8154 13.4823 25.8154 13.7517H35.2597C35.1815 13.6978 35.1554 13.6709 35.1293 13.6574C31.8421 12.0545 28.5548 10.4381 25.2545 8.86216C25.0849 8.78134 24.811 8.82175 24.6284 8.91604C21.7325 10.3169 18.8366 11.7178 15.9407 13.1321C14.9101 13.6305 13.8927 14.1289 12.823 14.6542C12.9404 14.735 13.0056 14.7754 13.0839 14.8158C16.9582 16.7016 20.8324 18.5874 24.7066 20.4462C24.8762 20.527 25.1502 20.5001 25.3328 20.4193C27.72 19.2743 30.0941 18.1159 32.4682 16.9575C33.3813 16.513 34.3075 16.0685 35.2206 15.624L35.2337 15.5971ZM15.8233 18.0486C15.8233 19.5168 15.8363 20.8772 15.8233 22.2377C15.8233 22.6149 15.9407 22.79 16.2668 22.9516C19.0453 24.3794 21.8238 25.8072 24.5892 27.2619C24.9023 27.4236 25.1371 27.4101 25.4502 27.2619C27.9156 25.9688 30.3941 24.7027 32.8595 23.423C33.29 23.1941 33.8901 23.0594 34.1118 22.6957C34.3336 22.332 34.177 21.7124 34.1901 21.214C34.1901 20.1903 34.1901 19.18 34.1901 18.1429C34.0857 18.1563 34.0335 18.1429 33.9944 18.1698C31.3724 19.4494 28.7374 20.7156 26.1155 22.0087C25.985 22.0761 25.8807 22.305 25.8676 22.4802C25.8415 22.9785 25.8676 23.4904 25.8546 23.9888C25.8415 24.6219 25.5154 25.0125 25.0067 24.999C24.524 24.999 24.211 24.6219 24.1849 24.0022C24.1849 23.5308 24.1588 23.0594 24.1849 22.5879C24.211 22.2377 24.0805 22.0491 23.7674 21.901C21.8368 20.985 19.9193 20.0421 17.9887 19.0992C17.2973 18.7625 16.619 18.4257 15.8363 18.0486H15.8233Z" fill="#003B91"/>
<path d="M24.9542 36.2107C24.1846 36.2107 23.428 36.2107 22.6584 36.2107C22.0453 36.2107 21.68 35.8739 21.667 35.3486C21.667 34.8098 22.0192 34.5 22.6453 34.5C24.2107 34.5 25.763 34.5 27.3284 34.5C27.9545 34.5 28.3197 34.8233 28.3197 35.3486C28.3197 35.8739 27.9545 36.2107 27.3284 36.2107C26.5326 36.2107 25.7369 36.2107 24.9412 36.2107H24.9542Z" fill="#003B91"/>
</g>
<defs>
<clipPath id="clip0_126_2868">
<rect width="50" height="50" fill="white"/>
</clipPath>
</defs>
</svg>
