<svg width="50" height="50" viewBox="0 0 50 50" fill="none" xmlns="http://www.w3.org/2000/svg">
<g clip-path="url(#clip0_126_2857)">
<path d="M18.3668 50.0031C17.5189 49.6645 16.8927 49.1307 16.7231 48.1541H16.1753C13.0837 48.1541 9.99212 48.1541 6.90055 48.1541C5.50477 48.1541 4.77428 47.4119 4.76123 46.0187C4.76123 44.7557 4.76123 43.4796 4.76123 42.2166C4.76123 39.6385 5.94829 37.9848 8.38763 37.1645C8.42677 37.1515 8.47894 37.1255 8.55721 37.0864C7.64409 36.0187 7.18753 34.8077 7.3832 33.4015C7.53973 32.2687 8.06152 31.3442 8.93551 30.602C10.553 29.2218 13.0185 29.2218 14.636 30.602C16.5536 32.2166 16.6971 34.4041 15.0534 37.1255C16.2274 37.438 17.1927 38.063 17.9363 39.0786C18.8625 37.9979 19.9843 37.2687 21.4583 36.9952C20.0886 35.563 19.5408 33.9354 19.9452 32.0473C20.2061 30.7843 20.8844 29.7687 21.9279 29.0135C24.0281 27.451 26.911 27.6984 28.7372 29.5473C30.3678 31.201 31.0461 34.3781 28.6068 36.9822C30.0026 37.2947 31.1635 37.9458 32.0766 39.0916C32.8332 38.089 33.7855 37.4249 35.0247 37.1124C34.0464 35.9926 33.629 34.7296 33.8507 33.2973C34.0333 32.1515 34.5943 31.227 35.5074 30.5109C37.2423 29.1437 39.7599 29.2869 41.3514 30.8364C42.7211 32.1775 43.4515 34.7557 41.4818 37.0864C41.6253 37.1385 41.7427 37.1906 41.8732 37.2296C43.8559 37.8807 45.1865 39.6255 45.2517 41.7218C45.2908 43.2192 45.2778 44.7166 45.2517 46.214C45.2517 47.3859 44.4429 48.1541 43.2689 48.1541C40.1382 48.1541 37.0206 48.1541 33.8898 48.1541C33.7072 48.1541 33.5376 48.1541 33.3028 48.1541C33.1463 49.1176 32.5202 49.6775 31.6462 50.0031H18.3668ZM25.0065 48.5317C26.9762 48.5317 28.9459 48.5317 30.9157 48.5317C31.6331 48.5317 31.8418 48.3234 31.8418 47.6072C31.8418 45.9796 31.8418 44.352 31.8418 42.7244C31.8418 40.1984 30.0417 38.3755 27.5241 38.3494C25.8544 38.3234 24.1716 38.3234 22.5019 38.3494C19.9843 38.3885 18.1972 40.2114 18.1841 42.7244C18.1841 44.352 18.1841 45.9796 18.1841 47.6072C18.1841 48.3234 18.3928 48.5317 19.1103 48.5317C21.08 48.5317 23.0498 48.5317 25.0195 48.5317H25.0065ZM33.3028 46.5916C33.3681 46.6437 33.3811 46.6697 33.3942 46.6697C36.6944 46.6697 39.9947 46.6697 43.295 46.6827C43.6472 46.6827 43.7777 46.4744 43.7777 46.1489C43.7777 44.6255 43.8038 43.089 43.7516 41.5656C43.6864 39.938 42.2775 38.5447 40.647 38.4796C39.0425 38.4275 37.4249 38.4275 35.8205 38.4796C34.5943 38.5187 33.6811 39.1697 33.0811 40.2505C32.9898 40.4067 32.9898 40.6411 33.0159 40.8364C33.0941 41.5135 33.2637 42.1775 33.2898 42.8546C33.3289 44.1046 33.2898 45.3546 33.2898 46.6046L33.3028 46.5916ZM16.7101 46.6827C16.7101 45.3676 16.684 44.1046 16.7101 42.8416C16.7362 42.1775 16.8927 41.5265 16.971 40.8755C16.9971 40.6541 16.9971 40.3807 16.8927 40.1984C16.2405 39.0656 15.2491 38.4666 13.9316 38.4536C12.5489 38.4406 11.1661 38.4406 9.78341 38.4536C7.63105 38.4666 6.23527 39.8859 6.22223 42.0473C6.22223 43.3494 6.22223 44.6515 6.22223 45.9536C6.22223 46.6176 6.30049 46.6827 6.95273 46.6827C10.0443 46.6827 13.1359 46.6827 16.2274 46.6827H16.6971H16.7101ZM28.7372 33.1411C28.7372 31.0838 27.0806 29.4171 25.0195 29.4041C22.9715 29.4041 21.2888 31.0708 21.2888 33.115C21.2888 35.1984 22.9585 36.8911 25.0195 36.8781C27.0806 36.8781 28.7372 35.1984 28.7372 33.1411ZM35.2595 33.9874C35.2595 35.6281 36.5901 36.9692 38.2207 36.9822C39.8512 36.9822 41.2079 35.6541 41.2209 34.0135C41.2209 32.3598 39.8773 30.9926 38.2207 31.0057C36.577 31.0057 35.2595 32.3468 35.2595 33.9874ZM14.7795 33.9874C14.7795 32.3468 13.462 31.0057 11.8184 31.0057C10.1878 31.0057 8.83115 32.3338 8.8181 33.9614C8.8181 35.615 10.1617 36.9822 11.8184 36.9822C13.462 36.9822 14.7795 35.6411 14.7795 34.0005V33.9874Z" fill="#003B90"/>
<path d="M23.5453 0C23.8715 0.247396 24.1454 0.520833 23.9889 0.976563C23.8193 1.41927 23.441 1.47135 23.0366 1.47135C20.8712 1.47135 18.7058 1.47135 16.5404 1.47135C14.2967 1.47135 12.7966 2.95573 12.7835 5.19531C12.7835 8.85417 12.7835 12.513 12.7835 16.1849C12.7835 18.4505 14.2837 19.9219 16.5665 19.9349C18.0144 19.9349 19.4624 19.9349 20.9103 19.9349C22.3452 19.9349 23.441 20.6901 23.9497 22.0313C24.3019 22.9427 24.6281 23.8542 24.9803 24.7656C24.9803 24.7656 25.0063 24.7656 25.0716 24.7917C25.3716 23.9714 25.6847 23.138 25.9847 22.3047C26.5978 20.625 27.5761 19.9349 29.3632 19.9349C30.746 19.9349 32.1287 19.9349 33.5114 19.9349C35.729 19.9349 37.2422 18.4375 37.2422 16.237C37.2422 12.5391 37.2552 8.85417 37.2422 5.15625C37.2422 2.98177 35.716 1.48438 33.5375 1.48438C31.3591 1.48438 29.1806 1.48438 26.9891 1.48438C26.5717 1.48438 26.1934 1.43229 26.0369 0.989583C25.8673 0.520833 26.1412 0.234375 26.4673 0C29.1024 0 31.7504 0 34.3854 0C34.4767 0.0260417 34.5681 0.078125 34.6594 0.0911458C35.8725 0.338542 36.8639 0.9375 37.6205 1.91406C37.8292 2.1875 38.051 2.27865 38.3901 2.27865C40.7512 2.26563 43.0992 2.27865 45.4603 2.27865C47.0648 2.27865 48.3953 2.8776 49.2693 4.24479C49.6215 4.79167 49.7781 5.45573 50.0129 6.06771V10.4688C49.752 10.7682 49.465 11.0417 49.0215 10.8594C48.578 10.6771 48.5519 10.2995 48.5519 9.88281C48.5519 8.90625 48.5519 7.92969 48.5519 6.95313C48.5519 4.92188 47.3779 3.75 45.3429 3.75C43.2558 3.75 41.1817 3.75 39.0945 3.75C38.938 3.75 38.7815 3.75 38.7162 3.75V6.92708C38.7162 9.64844 38.7162 12.3568 38.7162 15.0781C38.7162 16.4453 38.7815 17.8125 37.9336 19.0625C38.1031 19.1016 38.2075 19.1406 38.3119 19.1536C39.3685 19.3229 40.0859 19.9089 40.4903 20.8984C40.686 21.3802 40.8425 21.875 41.0251 22.3568C41.1034 22.5651 41.1947 22.7865 41.3252 23.112C41.6252 22.3047 41.86 21.6276 42.1078 20.9635C42.5644 19.8047 43.4253 19.1797 44.6776 19.1146C45.0168 19.1016 45.3559 19.1146 45.7081 19.1016C47.3909 19.0104 48.5388 17.8125 48.5519 16.1198C48.5519 15.3125 48.5127 14.4922 48.578 13.6849C48.591 13.4245 48.7997 13.099 49.0215 12.9557C49.3085 12.7734 49.6476 12.8906 49.8824 13.1901C49.9216 13.2422 49.9737 13.2682 50.0259 13.3073V16.8229C49.7911 17.4219 49.6346 18.0729 49.2824 18.6068C48.4214 19.9479 47.117 20.5599 45.5255 20.5729C43.8428 20.5859 43.8036 20.625 43.2166 22.2135C43.021 22.7604 42.8253 23.3203 42.6035 23.8542C42.3687 24.4531 41.8861 24.7917 41.2991 24.7656C40.686 24.7396 40.2555 24.4401 40.0337 23.8542C39.7468 23.0729 39.4598 22.2917 39.1728 21.5234C38.9119 20.8464 38.5336 20.5729 37.8162 20.5599C37.0726 20.5339 36.3682 20.599 35.6507 20.9505C35.0377 21.25 34.2811 21.3411 33.5767 21.3802C32.1287 21.4453 30.6808 21.3932 29.2328 21.3932C28.2545 21.3932 27.7457 21.7448 27.3935 22.6823C27.0804 23.5417 26.7804 24.388 26.4543 25.2474C26.1804 26.0026 25.6716 26.3932 24.9803 26.3802C24.315 26.3802 23.8193 25.9896 23.5453 25.2604C23.2192 24.375 22.9062 23.4896 22.567 22.6042C22.2539 21.7578 21.7191 21.4062 20.819 21.4062C19.3841 21.4062 17.9492 21.4062 16.5273 21.4062C15.549 21.4062 14.6489 21.1328 13.7619 20.7292C13.0314 20.3906 12.1965 20.4427 11.453 20.7682C11.1791 20.8854 10.9703 21.237 10.8399 21.5365C10.5399 22.2526 10.292 22.9948 10.0311 23.724C9.77024 24.4271 9.28759 24.7917 8.66145 24.7786C8.04835 24.7786 7.59179 24.4141 7.34394 23.737C7.07 23.0078 6.80911 22.2656 6.53518 21.5365C6.27428 20.8594 5.89599 20.599 5.17854 20.5599C4.56544 20.5339 3.92625 20.5599 3.33925 20.4167C1.42169 19.987 0.0389592 18.2813 0.0259146 16.3021C-0.00017465 13.0469 -0.00017465 9.79167 0.0259146 6.53646C0.0389592 4.1276 1.96956 2.29167 4.48717 2.26563C6.84825 2.23958 9.20932 2.26563 11.5704 2.26563C11.9356 2.26563 12.1835 2.1875 12.4313 1.875C13.1749 0.911458 14.1663 0.338542 15.3664 0.0911458C15.4577 0.078125 15.549 0.0260417 15.6403 0C18.2753 0 20.9103 0 23.5453 0ZM11.3095 3.73698C11.3486 3.73698 11.3747 3.77604 11.3095 3.73698C8.92234 3.73698 6.52213 3.6849 4.13497 3.76302C2.58266 3.8151 1.47387 5.07812 1.46082 6.58854C1.44778 9.80469 1.46082 13.0339 1.46082 16.25C1.46082 17.1875 1.87825 17.9427 2.62179 18.5026C3.27402 19.0104 4.04365 19.0885 4.83938 19.0755C6.61344 19.0755 7.40917 19.6354 8.02226 21.2891C8.23098 21.8359 8.43969 22.3828 8.68754 23.0729C8.98756 22.2526 9.22237 21.5625 9.4963 20.8854C9.88764 19.8828 10.6181 19.2839 11.7008 19.1016C11.8052 19.0885 11.9096 19.0495 12.0661 19.0104C11.5704 18.1641 11.3095 17.2917 11.3095 16.3411C11.3095 12.1484 11.3095 7.95573 11.3095 3.71094V3.73698Z" fill="#003B90"/>
<path d="M34.0986 11.4428C34.0986 12.823 32.9768 13.9168 31.6071 13.9038C30.2504 13.8907 29.1677 12.797 29.1808 11.4298C29.1808 10.0496 30.2896 8.95584 31.6723 8.96887C33.0289 8.96887 34.1116 10.0756 34.1116 11.4428H34.0986ZM30.6418 11.4298C30.6418 11.9897 31.0592 12.4324 31.6071 12.4324C32.155 12.4324 32.6115 12.0157 32.6246 11.4689C32.6376 10.8959 32.1941 10.4402 31.6332 10.4402C31.0853 10.4402 30.6418 10.8699 30.6418 11.4298Z" fill="#003B90"/>
<path d="M15.9276 11.4584C15.9276 10.1043 17.0103 8.99751 18.3539 8.98449C19.7366 8.97147 20.8454 10.0652 20.8454 11.4324C20.8454 12.8126 19.7497 13.9194 18.3669 13.9064C17.0103 13.9064 15.9276 12.8126 15.9146 11.4584H15.9276ZM19.3844 11.4324C19.3844 10.8725 18.9409 10.4428 18.393 10.4428C17.8452 10.4428 17.4016 10.8725 17.3886 11.4194C17.3886 11.9923 17.8321 12.448 18.4061 12.435C18.9539 12.435 19.3844 11.9793 19.3844 11.4324Z" fill="#003B90"/>
<path d="M27.4588 11.4715C27.4588 12.8256 26.3631 13.9064 25.0064 13.9194C23.6368 13.9194 22.541 12.8126 22.541 11.4324C22.541 10.0522 23.6629 8.97147 25.0456 8.98449C26.3892 8.99751 27.4719 10.1043 27.4588 11.4715ZM25.9848 11.4324C25.9848 10.8855 25.5413 10.4558 24.9804 10.4558C24.4064 10.4558 23.9759 10.9246 24.002 11.4975C24.0281 12.0444 24.4716 12.4611 25.0325 12.448C25.5804 12.435 25.9978 11.9923 25.9848 11.4324Z" fill="#003B90"/>
</g>
<defs>
<clipPath id="clip0_126_2857">
<rect width="50" height="50" fill="white"/>
</clipPath>
</defs>
</svg>
